<?xml version="1.0" encoding="UTF-8" standalone="no"?>
<svg
   xmlns:dc="http://purl.org/dc/elements/1.1/"
   xmlns:cc="http://creativecommons.org/ns#"
   xmlns:rdf="http://www.w3.org/1999/02/22-rdf-syntax-ns#"
   xmlns:svg="http://www.w3.org/2000/svg"
   xmlns="http://www.w3.org/2000/svg"
   xmlns:sodipodi="http://sodipodi.sourceforge.net/DTD/sodipodi-0.dtd"
   xmlns:inkscape="http://www.inkscape.org/namespaces/inkscape"
   inkscape:version="1.0 (4035a4f, 2020-05-01)"
   sodipodi:docname="Logo La Vuelta.svg"
   viewBox="0 0 700 187.03562"
   height="187.03563"
   width="700"
   xml:space="preserve"
   id="svg833"
   version="1.1"><metadata
     id="metadata839"><rdf:RDF><cc:Work
         rdf:about=""><dc:format>image/svg+xml</dc:format><dc:type
           rdf:resource="http://purl.org/dc/dcmitype/StillImage" /><dc:title></dc:title></cc:Work></rdf:RDF></metadata><defs
     id="defs837" /><sodipodi:namedview
     inkscape:current-layer="g841"
     inkscape:window-maximized="0"
     inkscape:window-y="0"
     inkscape:window-x="0"
     inkscape:cy="-47.989366"
     inkscape:cx="194.9328"
     inkscape:zoom="0.72194409"
     showgrid="false"
     id="namedview835"
     inkscape:window-height="900"
     inkscape:window-width="1440"
     inkscape:pageshadow="2"
     inkscape:pageopacity="0"
     guidetolerance="10"
     gridtolerance="10"
     objecttolerance="10"
     borderopacity="1"
     bordercolor="#666666"
     pagecolor="#ffffff" /><g
     transform="matrix(1.3333333,0,0,-1.3333333,-489.75732,295.55866)"
     inkscape:label="Logo La Vuelta"
     inkscape:groupmode="layer"
     id="g841"><path
       d="M 892.31801,81.39227 H 397.13333 L 367.318,221.669 h 495.18172 z"
       style="fill:#ee2722;fill-opacity:1;fill-rule:nonzero;stroke:none;stroke-width:2.96493"
       id="path885" /><g
       id="g2069"><path
         style="fill:#ffffff;fill-opacity:1;fill-rule:nonzero;stroke:none;stroke-width:2.96493"
         d="m 425.08965,109.90896 v 84.45008 c 0,0.7264 0.59002,1.31939 1.31939,1.31939 h 12.32224 c 0.72641,0 1.31643,-0.59299 1.31643,-1.31939 v -71.42218 c 0,-0.72937 0.58706,-1.3194 1.31643,-1.3194 h 20.88496 c 0.72938,0 1.3194,-0.59002 1.3194,-1.31939 v -10.38911 c 0,-0.72641 -0.59002,-1.31939 -1.3194,-1.31939 h -35.84006 c -0.72937,0 -1.31939,0.59298 -1.31939,1.31939"
         id="path2059" /><path
         style="fill:#ffffff;fill-opacity:1;fill-rule:nonzero;stroke:none;stroke-width:2.96493"
         d="m 571.50081,195.67843 h 11.99018 c 0.83611,0 1.46171,-0.77088 1.29271,-1.5892 l -17.66505,-84.45008 c -0.12749,-0.61078 -0.66711,-1.04958 -1.28975,-1.04958 h -12.81442 c -0.62263,0 -1.16522,0.4388 -1.28974,1.04958 l -17.66505,84.45008 c -0.169,0.81832 0.4566,1.5892 1.29271,1.5892 h 11.99017 c 0.63746,0 1.18301,-0.4566 1.29568,-1.08516 l 10.66485,-59.34603 h 0.24015 l 10.66189,59.34603 c 0.1097,0.62856 0.65525,1.08516 1.29567,1.08516"
         id="path2057" /><path
         style="fill:#ffffff;fill-opacity:1;fill-rule:nonzero;stroke:none;stroke-width:2.96493"
         d="m 804.25369,108.58957 h -11.99018 c -0.83611,0 -1.46171,0.77088 -1.28974,1.5892 l 17.66505,84.45008 c 0.12452,0.61077 0.66414,1.04958 1.28678,1.04958 h 12.81442 c 0.62263,0 1.16225,-0.43881 1.28974,-1.04958 l 17.66209,-84.45008 c 0.17196,-0.81832 -0.45067,-1.5892 -1.28975,-1.5892 h -11.99017 c -0.63746,0 -1.18597,0.45956 -1.29567,1.08812 l -10.66486,59.34306 h -0.24015 l -10.65892,-59.34306 c -0.11564,-0.62856 -0.65822,-1.08812 -1.29864,-1.08812"
         id="path2055" /><path
         style="fill:#ffffff;fill-opacity:1;fill-rule:nonzero;stroke:none;stroke-width:2.96493"
         d="m 480.19582,108.58957 h -11.99017 c -0.83908,0 -1.46171,0.77088 -1.28975,1.5892 l 17.66208,84.45008 c 0.1275,0.61077 0.66415,1.04958 1.28678,1.04958 h 12.81443 c 0.6256,0 1.16522,-0.43881 1.29271,-1.04958 l 17.65912,-84.45008 c 0.17493,-0.81832 -0.45067,-1.5892 -1.28678,-1.5892 h -11.99018 c -0.64042,0 -1.18597,0.45956 -1.29864,1.08812 l -10.66188,59.34306 h -0.24313 l -10.65595,-59.34306 c -0.11267,-0.62856 -0.66118,-1.08812 -1.29864,-1.08812"
         id="path2053" /><path
         style="fill:#ffffff;fill-opacity:1;fill-rule:nonzero;stroke:none;stroke-width:2.96493"
         d="m 594.75179,195.67843 h 12.31928 c 0.72937,0 1.31939,-0.59299 1.31939,-1.31939 v -64.41902 c 0,-6.35088 2.65361,-9.52928 7.96084,-9.52928 5.30722,0 7.96083,3.1784 7.96083,9.52928 v 64.41902 c 0,0.7264 0.59002,1.31939 1.31643,1.31939 h 12.32225 c 0.72641,0 1.31643,-0.59299 1.31643,-1.31939 V 130.5419 c 0,-7.5576 -2.03098,-13.3066 -6.08997,-17.24699 -4.05899,-3.94039 -9.66863,-5.90911 -16.82597,-5.90911 -7.15734,0 -12.76699,1.96872 -16.82598,5.90911 -4.06195,3.94039 -6.08996,9.68939 -6.08996,17.24699 v 63.81714 c 0,0.7264 0.59002,1.31939 1.31643,1.31939"
         id="path2051" /><path
         style="fill:#ffffff;fill-opacity:1;fill-rule:nonzero;stroke:none;stroke-width:2.96493"
         d="m 653.74202,109.90896 v 84.45008 c 0,0.7264 0.59299,1.31939 1.31939,1.31939 h 37.40852 c 0.7264,0 1.31642,-0.59299 1.31642,-1.31939 v -10.39208 c 0,-0.72641 -0.59002,-1.31643 -1.31642,-1.31643 h -22.45045 c -0.73234,0 -1.32236,-0.59002 -1.32236,-1.31643 v -19.79979 c 0,-0.72938 0.59002,-1.3194 1.32236,-1.3194 h 16.65994 c 0.72937,0 1.31939,-0.59002 1.31939,-1.31643 v -10.39207 c 0,-0.72641 -0.59002,-1.31643 -1.31939,-1.31643 h -16.65994 c -0.73234,0 -1.32236,-0.59002 -1.32236,-1.31939 v -22.93373 c 0,-0.72937 0.59002,-1.3194 1.32236,-1.3194 h 24.13749 c 0.72937,0 1.31939,-0.59002 1.31939,-1.31939 v -10.38911 c 0,-0.72641 -0.59002,-1.31939 -1.31939,-1.31939 h -39.09556 c -0.7264,0 -1.31939,0.59298 -1.31939,1.31939"
         id="path2049" /><path
         style="fill:#ffffff;fill-opacity:1;fill-rule:nonzero;stroke:none;stroke-width:2.96493"
         d="m 706.57113,109.90896 v 84.45008 c 0,0.7264 0.59002,1.31939 1.31643,1.31939 h 12.32224 c 0.72641,0 1.3194,-0.59299 1.3194,-1.31939 v -71.42218 c 0,-0.72937 0.59002,-1.3194 1.31643,-1.3194 h 20.88496 c 0.7264,0 1.31642,-0.59002 1.31642,-1.31939 v -10.38911 c 0,-0.72641 -0.59002,-1.31939 -1.31642,-1.31939 h -35.84303 c -0.72641,0 -1.31643,0.59298 -1.31643,1.31939"
         id="path2047" /><path
         style="fill:#ffffff;fill-opacity:1;fill-rule:nonzero;stroke:none;stroke-width:2.96493"
         d="m 759.40913,182.65053 h -11.83896 c -0.72641,0 -1.31643,0.59002 -1.31643,1.31643 v 10.39208 c 0,0.7264 0.59002,1.31939 1.31643,1.31939 h 41.27181 c 0.72641,0 1.31643,-0.59299 1.31643,-1.31939 v -10.39208 c 0,-0.72641 -0.59002,-1.31643 -1.31643,-1.31643 h -11.83896 c -0.72937,0 -1.31939,-0.59002 -1.31939,-1.31643 v -71.42514 c 0,-0.72641 -0.59002,-1.31939 -1.31643,-1.31939 h -12.31928 c -0.72937,0 -1.32236,0.59298 -1.32236,1.31939 v 71.42514 c 0,0.72641 -0.58706,1.31643 -1.31643,1.31643"
         id="path893" /></g></g></svg>
